Coordinates
version=1
nRows=14
nColumns=24
inDegrees=yes

Units are S.I. units (second, meters, Newtons, ...)
Angles are in degrees.

endheader
time	pelvis_tilt	pelvis_list	pelvis_rotation	pelvis_tx	pelvis_ty	pelvis_tz	hip_flexion_r	hip_adduction_r	hip_rotation_r	knee_angle_r	ankle_angle_r	subtalar_angle_r	mtp_angle_r	hip_flexion_l	hip_adduction_l	hip_rotation_l	knee_angle_l	ankle_angle_l	subtalar_angle_l	mtp_angle_l	lumbar_extension	lumbar_bending	lumbar_rotation
      3.71500000	    -16.79016459	     -4.25136413	      3.53469177	     -1.98945969	     -0.03843028	     -0.34169083	     43.59289604	      1.50998330	    -18.42656872	    -14.63450280	     -1.55052056	     -2.32877214	     18.59627284	     -1.22641765	     -4.63745127	     -5.01418679	    -17.13069782	      7.07558126	     11.37426657	      9.17672067	     19.79360380	     -0.57532131	    -22.10236345
      3.72000000	    -16.80651089	     -4.51094282	      3.63247141	     -1.98171511	     -0.03942711	     -0.34139726	     43.66020748	      1.65260691	    -18.42631297	    -15.36620962	     -2.22719917	     -3.15608885	     18.54587253	     -1.32624339	     -5.05178669	     -4.90029758	    -17.79182576	      6.59575318	     11.63716653	      9.20070489	     19.93941148	     -0.29673544	    -22.27159441
      3.72500000	    -16.83619405	     -4.79589666	      3.68103723	     -1.97392981	     -0.04040041	     -0.34099656	     43.73582509	      1.87915050	    -18.28384251	    -16.09060652	     -3.05496572	     -4.24102406	     18.45297475	     -1.38788621	     -5.50871506	     -4.89007769	    -18.49401582	      6.04637363	     11.95876824	      9.33724940	     20.10608968	      0.01707565	    -22.40815195
      3.73000000	    -16.86907219	     -5.06292481	      3.62459265	     -1.96611396	     -0.04136869	     -0.34039982	     43.82996303	      2.19340819	    -17.92844780	    -16.84195698	     -3.94553816	     -5.52001568	     18.28618842	     -1.43138194	     -5.97362433	     -5.13854243	    -19.23523161	      5.38570202	     12.36111393	      9.73732645	     20.27473331	      0.34178657	    -22.42899370
      3.73500000	    -16.92443471	     -5.40189212	      3.71603563	     -1.95834759	     -0.04224573	     -0.34007084	     43.95517692	      2.44660044	    -17.77358097	    -17.63399067	     -4.82713298	     -6.76541624	     18.06437269	     -1.37631068	     -6.48429149	     -5.01104686	    -20.03209799	      4.66518421	     12.56538971	     10.02410995	     20.47031156	      0.69563004	    -22.61022790
      3.74000000	    -17.00918788	     -5.73386841	      3.71351547	     -1.95057107	     -0.04313151	     -0.33952524	     44.12817642	      2.79912503	    -17.36363594	    -18.44842280	     -5.70398850	     -8.23558521	     17.70755476	     -1.25710534	     -7.01811400	     -5.11046683	    -20.89681491	      3.85344900	     12.88558127	     10.48506049	     20.69368294	      1.05994271	    -22.69915923
      3.74500000	    -17.05866742	     -6.02351131	      3.59258865	     -1.94275831	     -0.04396580	     -0.33875243	     44.31447429	      3.22396332	    -16.77860255	    -19.41436764	     -6.36838731	     -9.52925119	     16.29362724	     -1.20571831	     -7.54106178	     -5.46855604	    -21.64621038	      2.69044178	     13.07072435	     12.42782021	     20.87235684	      1.41738528	    -22.67930050
      3.75000000	    -17.18780537	     -6.37823226	      3.54770131	     -1.93500332	     -0.04481555	     -0.33816405	     44.57465447	      3.64198448	    -16.23362014	    -20.33798453	     -6.97874295	    -10.92641324	     15.68758638	     -0.93795631	     -8.11459820	     -5.65188583	    -22.66473341	      1.71629618	     13.37614052	     12.89237975	     21.13745412	      1.81202334	    -22.78727850
      3.75500000	    -17.26060520	     -6.67899649	      3.47674112	     -1.92726741	     -0.04551696	     -0.33742119	     44.81362794	      4.06129918	    -15.66161320	    -21.40157676	     -7.35271965	    -12.13751573	     13.88186635	     -0.73519565	     -8.65036527	     -5.83114239	    -23.58007830	      0.38819150	     13.54518898	     14.46516601	     21.33031252	      2.15310412	    -22.79283887
      3.76000000	    -17.32065819	     -7.03773155	      3.44607935	     -1.91963474	     -0.04617701	     -0.33682478	     45.03003429	      4.50588526	    -15.07839520	    -22.46186181	     -7.52160632	    -13.17658996	     12.06405234	     -0.43625463	     -9.23780705	     -5.95786242	    -24.64862667	     -0.96940932	     13.52415965	     15.88550224	     21.49554935	      2.55162250	    -22.90784214
      3.76500000	    -17.44786507	     -7.39852652	      3.37396644	     -1.91191132	     -0.04687785	     -0.33611790	     45.29065506	      4.98692237	    -14.50539477	    -23.46686188	     -7.58550435	    -14.29797223	     11.07543177	     -0.01532388	     -9.85697602	     -6.17267162	    -25.83811489	     -2.34043735	     13.79646561	     16.69361335	     21.75089741	      2.94609623	    -23.01306677
      3.77000000	    -17.46455074	     -7.70712398	      3.33212993	     -1.90436714	     -0.04737374	     -0.33543688	     45.46503435	      5.40492648	    -14.09027854	    -24.59642993	     -7.38671856	    -15.04885958	      8.75195602	      0.33382955	    -10.41047486	     -6.29592742	    -26.95801027	     -4.08479101	     13.60536035	     18.71566941	     21.84831483	      3.29285880	    -23.04341896
      3.77500000	    -17.51959421	     -8.04512082	      3.31738550	     -1.89691641	     -0.04791963	     -0.33475152	     45.62638690	      5.84353972	    -13.61060627	    -25.60347711	     -7.08289039	    -15.80451406	      7.29356933	      0.83785311	    -11.01244914	     -6.37604712	    -28.27137554	     -5.73370594	     13.64683551	     20.02194582	     21.97444604	      3.64288295	    -23.21201812
      3.78000000	    -17.51051474	     -8.37311682	      3.29627044	     -1.88937688	     -0.04828423	     -0.33417047	     45.68024970	      6.25671366	    -13.34658232	    -26.60044477	     -6.55920789	    -16.23851103	      5.41826111	      1.27808851	    -11.57135404	     -6.38299204	    -29.50603650	     -7.71027854	     13.25869083	     21.83990857	     22.05286739	      4.00629172	    -23.32600122
